<?xml version="1.0" encoding="UTF-8"?>
<svg xmlns="http://www.w3.org/2000/svg" version="1.1" viewBox="0 0 48 48">
  <defs>
    <style>
      .cls-1 {
        fill-rule: evenodd;
      }
    </style>
  </defs>
  <!-- Generator: Adobe Illustrator 28.6.0, SVG Export Plug-In . SVG Version: 1.2.0 Build 709)  -->
  <g>
    <g id="Layer_1">
      <path class="cls-1" d="M39.1,14H9v20.1h30.1V14ZM9,12c-1.1,0-2,.9-2,2v20.1c0,1.1.9,2,2,2h30.1c1.1,0,2-.9,2-2V14c0-1.1-.9-2-2-2H9Z"/>
      <g id="letters">
        <path d="M14.2,23l-3.2,8.6h1.2l.9-2.6h3.4l.9,2.6h1.3l-3.1-8.6h-1.3ZM13.4,28.1l1.4-3.8,1.3,3.8h-2.7Z"/>
        <path d="M25,30.9c0,0-.1,0-.2,0-.1,0-.2,0-.3,0s0-.2,0-.3v-3.6c0-.6-.2-1-.7-1.3-.5-.3-1.1-.4-1.8-.4s-1.2.2-1.7.5c-.5.3-.7.8-.8,1.6h1c0-.3.1-.6.3-.7.2-.3.6-.4,1.2-.4s.8,0,1.1.2c.3.2.4.4.4.8s0,.3,0,.4c0,.2-.2.3-.5.3l-1.7.2c-.6,0-1.1.3-1.4.6-.4.3-.5.8-.5,1.4s.2,1,.6,1.3c.4.4.8.5,1.4.5s.9-.1,1.3-.3.7-.5.9-.7c0,.2,0,.4.2.6.2.3.4.4.8.4s.3,0,.4,0,.2,0,.4,0v-.8c0,0-.1,0-.2,0ZM23.4,29.3c0,.6-.3,1.1-.9,1.4-.3.2-.7.3-1.1.3s-.6,0-.8-.3c-.2-.2-.3-.4-.3-.7s.2-.7.5-.9c.2-.1.5-.2.9-.2h.6c.2-.1.4-.1.6-.2s.4-.1.5-.2v.8Z"/>
      </g>
    </g>
  </g>
</svg>