<svg version="1.1" xmlns="http://www.w3.org/2000/svg" width="100px" height="100px" viewBox="0 0 100 100">
	<path d="M72.2,26.1V15.5H52.4c-1.2,0-2.2,0.9-2.2,2.1v27.5h44V17.7c0-1.2-1-2.1-2.2-2.1h-6.6v14.8c0,1.2-1,2.1-2.2,2.1
		S81,31.5,81,30.4V15.5h-4.4v10.6c0,1.2-1,2.1-2.2,2.1C73.2,28.3,72.2,27.3,72.2,26.1 M94.2,49.4h-44v4.3c0,4.7,3.9,8.5,8.8,8.5h6.6
		V77c0,3.5,3,6.4,6.6,6.4s6.6-2.8,6.6-6.4V62.2h6.6c4.9,0,8.8-3.8,8.8-8.5V49.4z"/>
	<path d="M54.1,64c-1.6,0-3.8-1.4-4.9-2.3c0.5,1.4,1.3,3.7,1.3,5.4c0,5.4-2.9,12-14.8,17.2C36.7,69,26.4,70.8,24,66
		c0.5-4,2.9-7.5,6.6-9.3c-5.7-1-10.9-3.5-15.3-7.3c0.2,1.7,1,3.3,2.3,4.4c-2.9-1.1-5.3-3-7.1-5.5c3.6-11.8,14.2-20,26.5-20.6
		c-3.1,5-5.5,15.1,0,20.3c-5.6,0.9-9.2-6.4-12.3-3.5c-4.1,3.9,1.2,9.2,12.5,11.2c5.2,0.9,9,3.3,10.9,4.8c-0.3-0.7-1.1-2.6-1.1-3.5
		V28.4c0-0.9-0.6-3.5-2.2-3.8c-2.5-0.6-5-0.8-7.6-0.8c-8.7,0.1-17,3.6-23,9.8c-1.5,1.5-2.7,3.1-3.9,4.7c-0.4,0.6-0.8,1.3-1.2,1.9
		c-0.1,0.2-0.2,0.3-0.3,0.5c-2.6,4.8-4.1,10.2-4.1,15.7v0.3C5,74.7,19.6,89.2,37.5,89.2c0.1,0,0.1,0,0.2,0c0,0,0.1,0,0.1,0
		c0.2,0,0.4,0,0.6,0c0.4,0,0.7,0,1.1-0.1c4.7-0.2,9-1.4,13-3.4c0.3-0.1,0.6-0.3,0.9-0.4c0,0,0.1,0,0.1-0.1c1.7-0.9,3.3-1.9,4.6-3
		c2.3-2,3.7-4.5,3.6-7.2c0,0,0.1-9.7,0.1-10.5C61.8,64.4,54.1,64,54.1,64z"/>
</svg>
