
<svg version="1.1" xmlns="http://www.w3.org/2000/svg" x="0px" y="0px" width="100px" height="100px" viewBox="0 0 100 100">
	<path class="st1" d="M61.7,75.1c0,0,0.1-9.6,0.1-10.5c0,0-7.7-0.4-7.7-0.4c-3.9,0-7-3-7-6.8V28.7c0-0.9-0.6-3.4-2.2-3.8
		c-2.5-0.6-5-0.8-7.5-0.8c-8.7,0.1-16.9,3.6-23,9.8v0C8.4,40,5,48.2,5,56.7v0.3c0.2,17.9,14.7,32.3,32.6,32.3
		C46.7,89.3,62.1,84,61.7,75.1z M22.4,51.3c-2.2,0-3.9-1.8-3.9-3.9c0-2.2,1.8-3.9,3.9-3.9c2.2,0,3.9,1.8,3.9,3.9
		C26.3,49.6,24.5,51.3,22.4,51.3z M20.6,61.9c-2.1,0-3.8-1.7-3.8-3.8c0-2.1,1.7-3.8,3.8-3.8c2.1,0,3.8,1.7,3.8,3.8
		C24.4,60.2,22.7,61.9,20.6,61.9z M25.5,71.8c-2.1,0-3.8-1.7-3.8-3.8c0-2.1,1.7-3.8,3.8-3.8c2.1,0,3.8,1.7,3.8,3.8
		C29.2,70.1,27.5,71.8,25.5,71.8z M30.9,43.8c-2.2,0-4-1.8-4-4c0-2.2,1.8-4,4-4c2.2,0,4,1.8,4,4C34.9,42,33.1,43.8,30.9,43.8z
		 M48.5,80.9c-3.4,0-6.2-2.8-6.2-6.2c0-3.4,2.8-6.2,6.2-6.2c3.4,0,6.2,2.8,6.2,6.2C54.7,78.1,51.9,80.9,48.5,80.9z"/>
	<path d="M72.2,26.1V15.5H52.4c-1.2,0-2.2,0.9-2.2,2.1v27.5h44V17.7c0-1.2-1-2.1-2.2-2.1h-6.6v14.8c0,1.2-1,2.1-2.2,2.1
		S81,31.5,81,30.4V15.5h-4.4v10.6c0,1.2-1,2.1-2.2,2.1C73.2,28.3,72.2,27.3,72.2,26.1 M94.2,49.4h-44v4.3c0,4.7,3.9,8.5,8.8,8.5h6.6
		V77c0,3.5,3,6.4,6.6,6.4s6.6-2.8,6.6-6.4V62.2h6.6c4.9,0,8.8-3.8,8.8-8.5V49.4z"/>

</svg>
